HIERARCHY
ROOT mixamorig:Hips
{
	OFFSET -0.000008 104.274872 1.554316
	CHANNELS 6 Xposition Yposition Zposition Xrotation Yrotation Zrotation
	JOINT mixamorig:Spine
	{
		OFFSET -0.000005 10.181595 0.131519
		CHANNELS 6 Xposition Yposition Zposition Xrotation Yrotation Zrotation
		JOINT mixamorig:Spine1
		{
			OFFSET -0.000000 9.893959 -1.470707
			CHANNELS 6 Xposition Yposition Zposition Xrotation Yrotation Zrotation
			JOINT mixamorig:Spine2
			{
				OFFSET -0.000000 9.220757 -1.370641
				CHANNELS 6 Xposition Yposition Zposition Xrotation Yrotation Zrotation
				JOINT mixamorig:Neck
				{
					OFFSET 0.000001 16.740417 -2.049036
					CHANNELS 6 Xposition Yposition Zposition Xrotation Yrotation Zrotation
					JOINT mixamorig:Head
					{
						OFFSET 0.000000 9.617874 1.685006
						CHANNELS 6 Xposition Yposition Zposition Xrotation Yrotation Zrotation
						JOINT mixamorig:HeadTop_End
						{
							OFFSET 0.000002 22.037354 7.501101
							CHANNELS 6 Xposition Yposition Zposition Xrotation Yrotation Zrotation
							End Site
							{
								OFFSET 0.000168 2310.654297 -282.823242
							}
						}
					}
				}
				JOINT mixamorig:RightShoulder
				{
					OFFSET -4.569970 11.014908 -2.160885
					CHANNELS 6 Xposition Yposition Zposition Xrotation Yrotation Zrotation
					JOINT mixamorig:RightArm
					{
						OFFSET -10.592851 -0.524811 -2.232101
						CHANNELS 6 Xposition Yposition Zposition Xrotation Yrotation Zrotation
						JOINT mixamorig:RightForeArm
						{
							OFFSET -27.841511 0.000031 -0.000004
							CHANNELS 6 Xposition Yposition Zposition Xrotation Yrotation Zrotation
							JOINT mixamorig:RightHand
							{
								OFFSET -28.328831 -0.000015 0.000015
								CHANNELS 6 Xposition Yposition Zposition Xrotation Yrotation Zrotation
								JOINT mixamorig:RightHandThumb1
								{
									OFFSET -2.464806 -1.573990 2.681852
									CHANNELS 6 Xposition Yposition Zposition Xrotation Yrotation Zrotation
									JOINT mixamorig:RightHandThumb2
									{
										OFFSET -3.215179 -1.872803 1.924282
										CHANNELS 6 Xposition Yposition Zposition Xrotation Yrotation Zrotation
										JOINT mixamorig:RightHandThumb3
										{
											OFFSET -2.654831 -1.527969 1.512609
											CHANNELS 6 Xposition Yposition Zposition Xrotation Yrotation Zrotation
											JOINT mixamorig:RightHandThumb4
											{
												OFFSET -2.018814 -1.152008 1.108052
												CHANNELS 6 Xposition Yposition Zposition Xrotation Yrotation Zrotation
												End Site
												{
													OFFSET -188.809540 -114.533607 132.431396
												}
											}
										}
									}
								}
								JOINT mixamorig:RightHandIndex1
								{
									OFFSET -9.108284 -0.517868 2.259835
									CHANNELS 6 Xposition Yposition Zposition Xrotation Yrotation Zrotation
									JOINT mixamorig:RightHandIndex2
									{
										OFFSET -3.699989 0.000000 0.001215
										CHANNELS 6 Xposition Yposition Zposition Xrotation Yrotation Zrotation
										JOINT mixamorig:RightHandIndex3
										{
											OFFSET -2.850006 0.000031 -0.000522
											CHANNELS 6 Xposition Yposition Zposition Xrotation Yrotation Zrotation
											JOINT mixamorig:RightHandIndex4
											{
												OFFSET -2.772186 -0.000015 -0.000020
												CHANNELS 6 Xposition Yposition Zposition Xrotation Yrotation Zrotation
												End Site
												{
													OFFSET -277.218445 0.000000 -0.050231
												}
											}
										}
									}
								}
								JOINT mixamorig:RightHandMiddle1
								{
									OFFSET -9.532516 -0.000031 -0.000023
									CHANNELS 6 Xposition Yposition Zposition Xrotation Yrotation Zrotation
									JOINT mixamorig:RightHandMiddle2
									{
										OFFSET -3.700005 -0.000015 0.003713
										CHANNELS 6 Xposition Yposition Zposition Xrotation Yrotation Zrotation
										JOINT mixamorig:RightHandMiddle3
										{
											OFFSET -2.949974 0.000015 -0.002054
											CHANNELS 6 Xposition Yposition Zposition Xrotation Yrotation Zrotation
											JOINT mixamorig:RightHandMiddle4
											{
												OFFSET -2.946640 0.000000 -0.000156
												CHANNELS 6 Xposition Yposition Zposition Xrotation Yrotation Zrotation
												End Site
												{
													OFFSET -294.664337 0.000000 -0.113670
												}
											}
										}
									}
								}
								JOINT mixamorig:RightHandRing1
								{
									OFFSET -9.103600 -0.043076 -1.865134
									CHANNELS 6 Xposition Yposition Zposition Xrotation Yrotation Zrotation
									JOINT mixamorig:RightHandRing2
									{
										OFFSET -3.379288 0.000000 -0.001055
										CHANNELS 6 Xposition Yposition Zposition Xrotation Yrotation Zrotation
										JOINT mixamorig:RightHandRing3
										{
											OFFSET -2.889687 -0.000015 0.000379
											CHANNELS 6 Xposition Yposition Zposition Xrotation Yrotation Zrotation
											JOINT mixamorig:RightHandRing4
											{
												OFFSET -2.638809 -0.000015 0.000941
												CHANNELS 6 Xposition Yposition Zposition Xrotation Yrotation Zrotation
												End Site
												{
													OFFSET -263.880371 0.000000 0.516020
												}
											}
										}
									}
								}
								JOINT mixamorig:RightHandPinky1
								{
									OFFSET -8.076683 -0.486710 -3.806280
									CHANNELS 6 Xposition Yposition Zposition Xrotation Yrotation Zrotation
									JOINT mixamorig:RightHandPinky2
									{
										OFFSET -3.600014 -0.000015 -0.003747
										CHANNELS 6 Xposition Yposition Zposition Xrotation Yrotation Zrotation
										JOINT mixamorig:RightHandPinky3
										{
											OFFSET -2.099983 0.000000 -0.005739
											CHANNELS 6 Xposition Yposition Zposition Xrotation Yrotation Zrotation
											JOINT mixamorig:RightHandPinky4
											{
												OFFSET -2.115768 -0.000031 -0.003680
												CHANNELS 6 Xposition Yposition Zposition Xrotation Yrotation Zrotation
												End Site
												{
													OFFSET -211.577087 0.000000 -0.350686
												}
											}
										}
									}
								}
							}
						}
					}
				}
				JOINT mixamorig:LeftShoulder
				{
					OFFSET 4.570447 11.014725 -2.160855
					CHANNELS 6 Xposition Yposition Zposition Xrotation Yrotation Zrotation
					JOINT mixamorig:LeftArm
					{
						OFFSET 10.592371 -0.524597 -2.232119
						CHANNELS 6 Xposition Yposition Zposition Xrotation Yrotation Zrotation
						JOINT mixamorig:LeftForeArm
						{
							OFFSET 27.841532 -0.000031 0.000026
							CHANNELS 6 Xposition Yposition Zposition Xrotation Yrotation Zrotation
							JOINT mixamorig:LeftHand
							{
								OFFSET 28.328846 -0.000061 0.000022
								CHANNELS 6 Xposition Yposition Zposition Xrotation Yrotation Zrotation
								JOINT mixamorig:LeftHandThumb1
								{
									OFFSET 2.466141 -1.576172 2.681732
									CHANNELS 6 Xposition Yposition Zposition Xrotation Yrotation Zrotation
									JOINT mixamorig:LeftHandThumb2
									{
										OFFSET 3.217812 -1.872070 1.916482
										CHANNELS 6 Xposition Yposition Zposition Xrotation Yrotation Zrotation
										JOINT mixamorig:LeftHandThumb3
										{
											OFFSET 2.656029 -1.528778 1.514513
											CHANNELS 6 Xposition Yposition Zposition Xrotation Yrotation Zrotation
											JOINT mixamorig:LeftHandThumb4
											{
												OFFSET 2.020889 -1.154053 1.115139
												CHANNELS 6 Xposition Yposition Zposition Xrotation Yrotation Zrotation
												End Site
												{
													OFFSET 190.885437 -115.081749 130.048782
												}
											}
										}
									}
								}
								JOINT mixamorig:LeftHandIndex1
								{
									OFFSET 9.109314 -0.518021 2.259871
									CHANNELS 6 Xposition Yposition Zposition Xrotation Yrotation Zrotation
									JOINT mixamorig:LeftHandIndex2
									{
										OFFSET 3.699989 0.000000 -0.000322
										CHANNELS 6 Xposition Yposition Zposition Xrotation Yrotation Zrotation
										JOINT mixamorig:LeftHandIndex3
										{
											OFFSET 2.850006 0.000000 0.000352
											CHANNELS 6 Xposition Yposition Zposition Xrotation Yrotation Zrotation
											JOINT mixamorig:LeftHandIndex4
											{
												OFFSET 2.774864 -0.000031 -0.000027
												CHANNELS 6 Xposition Yposition Zposition Xrotation Yrotation Zrotation
												End Site
												{
													OFFSET 277.486267 0.000000 -0.009857
												}
											}
										}
									}
								}
								JOINT mixamorig:LeftHandMiddle1
								{
									OFFSET 9.533394 0.000061 0.000044
									CHANNELS 6 Xposition Yposition Zposition Xrotation Yrotation Zrotation
									JOINT mixamorig:LeftHandMiddle2
									{
										OFFSET 3.699989 -0.000015 -0.000231
										CHANNELS 6 Xposition Yposition Zposition Xrotation Yrotation Zrotation
										JOINT mixamorig:LeftHandMiddle3
										{
											OFFSET 2.949997 -0.000015 -0.000059
											CHANNELS 6 Xposition Yposition Zposition Xrotation Yrotation Zrotation
											JOINT mixamorig:LeftHandMiddle4
											{
												OFFSET 2.952896 0.000031 0.000063
												CHANNELS 6 Xposition Yposition Zposition Xrotation Yrotation Zrotation
												End Site
												{
													OFFSET 295.289337 0.000000 0.022810
												}
											}
										}
									}
								}
								JOINT mixamorig:LeftHandRing1
								{
									OFFSET 9.104523 -0.042999 -1.865074
									CHANNELS 6 Xposition Yposition Zposition Xrotation Yrotation Zrotation
									JOINT mixamorig:LeftHandRing2
									{
										OFFSET 3.150009 -0.000031 0.000043
										CHANNELS 6 Xposition Yposition Zposition Xrotation Yrotation Zrotation
										JOINT mixamorig:LeftHandRing3
										{
											OFFSET 2.949982 -0.000015 0.000040
											CHANNELS 6 Xposition Yposition Zposition Xrotation Yrotation Zrotation
											JOINT mixamorig:LeftHandRing4
											{
												OFFSET 2.644348 0.000000 0.000057
												CHANNELS 6 Xposition Yposition Zposition Xrotation Yrotation Zrotation
												End Site
												{
													OFFSET 264.434631 0.000000 0.012105
												}
											}
										}
									}
								}
								JOINT mixamorig:LeftHandPinky1
								{
									OFFSET 8.077789 -0.486847 -3.806259
									CHANNELS 6 Xposition Yposition Zposition Xrotation Yrotation Zrotation
									JOINT mixamorig:LeftHandPinky2
									{
										OFFSET 3.599953 0.000031 0.014727
										CHANNELS 6 Xposition Yposition Zposition Xrotation Yrotation Zrotation
										JOINT mixamorig:LeftHandPinky3
										{
											OFFSET 2.100021 0.000015 0.007705
											CHANNELS 6 Xposition Yposition Zposition Xrotation Yrotation Zrotation
											JOINT mixamorig:LeftHandPinky4
											{
												OFFSET 2.125504 0.000031 0.007517
												CHANNELS 6 Xposition Yposition Zposition Xrotation Yrotation Zrotation
												End Site
												{
													OFFSET 212.550781 0.000000 0.625752
												}
											}
										}
									}
								}
							}
						}
					}
				}
			}
		}
	}
	JOINT mixamorig:RightUpLeg
	{
		OFFSET -8.207787 -6.751648 -1.599560
		CHANNELS 6 Xposition Yposition Zposition Xrotation Yrotation Zrotation
		JOINT mixamorig:RightLeg
		{
			OFFSET -0.000002 -44.370117 0.345942
			CHANNELS 6 Xposition Yposition Zposition Xrotation Yrotation Zrotation
			JOINT mixamorig:RightFoot
			{
				OFFSET 0.000003 -44.423679 -3.043532
				CHANNELS 6 Xposition Yposition Zposition Xrotation Yrotation Zrotation
				JOINT mixamorig:RightToeBase
				{
					OFFSET -0.000002 -8.728671 10.710558
					CHANNELS 6 Xposition Yposition Zposition Xrotation Yrotation Zrotation
					JOINT mixamorig:RightToe_End
					{
						OFFSET -0.000001 -0.000679 9.278119
						CHANNELS 6 Xposition Yposition Zposition Xrotation Yrotation Zrotation
						End Site
						{
							OFFSET 0.000000 -0.067690 927.812134
						}
					}
				}
			}
		}
	}
	JOINT mixamorig:LeftUpLeg
	{
		OFFSET 8.207793 -6.751686 -1.599556
		CHANNELS 6 Xposition Yposition Zposition Xrotation Yrotation Zrotation
		JOINT mixamorig:LeftLeg
		{
			OFFSET -0.000004 -44.370014 0.346954
			CHANNELS 6 Xposition Yposition Zposition Xrotation Yrotation Zrotation
			JOINT mixamorig:LeftFoot
			{
				OFFSET -0.000001 -44.423672 -3.044401
				CHANNELS 6 Xposition Yposition Zposition Xrotation Yrotation Zrotation
				JOINT mixamorig:LeftToeBase
				{
					OFFSET -0.000002 -8.728669 10.710558
					CHANNELS 6 Xposition Yposition Zposition Xrotation Yrotation Zrotation
					JOINT mixamorig:LeftToe_End
					{
						OFFSET -0.000003 -0.000679 9.278133
						CHANNELS 6 Xposition Yposition Zposition Xrotation Yrotation Zrotation
						End Site
						{
							OFFSET 0.000000 -0.068021 927.813477
						}
					}
				}
			}
		}
	}
}
MOTION
Frames: 3
Frame Time: 0.033333
0.000006 104.270477 1.554256 0.000010 0.000003 -0.000113 -0.000005 10.181587 0.131522 0.000001 -0.000003 0.000084 -0.000000 9.893967 -1.470711 0.000001 0.000000 -0.000000 -0.000000 9.220802 -1.370642 0.000000 -0.000000 -0.000000 0.000001 16.740433 -2.049030 0.000000 -0.000000 -0.000000 0.000000 9.617859 1.685014 0.000000 0.000000 0.000000 0.000002 22.037384 7.501101 0.000000 -0.000000 0.000000 -4.569968 11.014880 -2.160881 0.000008 0.000001 -0.000038 -10.592756 -0.524838 -2.231721 77.684721 72.346566 -60.976555 -27.841507 -0.000006 0.000565 37.065985 98.970158 -42.840524 -28.328850 0.000036 0.000029 -0.000322 -0.000044 0.000006 -2.464926 -1.574022 2.682065 -81.023461 35.561148 -51.129673 -3.214963 -1.873054 1.924602 -117.085712 -36.425064 -52.097630 -2.654872 -1.527686 1.512938 64.029964 57.284455 -137.559709 -2.018833 -1.152025 1.108052 -0.000001 0.000007 0.000002 -9.108345 -0.517660 2.259870 0.926555 8.074346 -53.591665 -3.700039 0.000364 0.001484 86.013037 2.794160 -17.342421 -2.850035 0.000405 -0.000232 89.984102 -0.545262 -33.460141 -2.772171 -0.000031 -0.000015 -0.000001 0.000000 -0.000000 -9.532680 0.000104 0.000287 -17.691930 65.528425 -43.066822 -3.700051 0.000347 0.004019 87.162701 6.276105 -36.483595 -2.950089 0.000304 -0.001798 99.090335 18.013893 -18.363379 -2.946645 -0.000029 -0.000155 -0.000000 0.000001 -0.000004 -9.103722 -0.043124 -1.864775 124.704965 126.331138 -146.514511 -3.379304 0.000307 -0.000861 73.283258 7.349487 -27.663830 -2.889743 0.000346 0.000644 86.373370 5.214031 -23.822505 -2.638817 -0.000044 0.000937 0.000004 0.000001 0.000000 -8.076799 -0.486614 -3.806164 26.543623 35.548836 12.621252 -3.600076 0.000125 -0.003680 50.556726 21.049649 8.842660 -2.099969 0.000296 -0.005634 54.596994 -1.374995 -14.768843 -2.115775 -0.000071 -0.003674 -0.000001 -0.000002 -0.000000 4.570446 11.014691 -2.160851 -0.000018 0.000010 -0.000021 10.592526 -0.524565 -2.232368 65.465553 -77.798136 54.827530 27.841778 -0.000060 -0.000134 213.191774 -81.484075 218.169657 28.328840 -0.000044 0.000021 0.000024 -0.000089 -0.000000 2.465967 -1.576146 2.681903 -41.061420 -200.826263 -5.378013 3.217771 -1.871707 1.916366 161.877710 -33.209766 -6.868868 2.656111 -1.528606 1.514469 158.330192 -22.927907 44.886538 2.020891 -1.154065 1.115147 0.000002 0.000004 0.000002 9.109400 -0.517852 2.259736 93.910108 -21.435417 22.897939 3.700058 0.000152 -0.000439 87.655526 -17.442712 16.770314 2.850068 0.000173 0.000207 84.207599 -14.131929 12.781523 2.774898 -0.000014 -0.000035 -0.000000 0.000002 0.000002 9.533493 0.000196 -0.000065 91.515178 -24.495478 25.121675 3.700063 0.000165 -0.000368 90.990523 -17.007091 17.296368 2.950056 0.000143 -0.000183 87.970077 -18.633818 17.998885 2.952873 -0.000032 0.000055 -0.000000 0.000001 0.000000 9.104597 -0.042849 -1.865206 84.654471 -21.791491 19.890180 3.150065 0.000172 -0.000075 84.456150 -12.055009 10.950351 2.950016 0.000154 -0.000072 82.836124 -12.075059 10.662663 2.644319 0.000030 0.000052 -0.000004 0.000001 -0.000000 8.077841 -0.486718 -3.806395 78.672564 -22.138841 18.729869 3.599984 0.000173 0.014561 77.549490 -10.644867 8.959030 2.100022 0.000161 0.007522 77.579358 -8.490548 7.201331 2.125497 -0.000031 0.007525 0.000000 -0.000002 -0.000000 -8.207786 -6.751667 -1.599560 -0.077001 -0.000003 0.000080 -0.000002 -44.370110 0.345938 0.153719 -0.000000 -0.000000 0.000000 -44.423679 -3.043532 -0.076700 0.000000 -0.000002 -0.000006 -8.728667 10.710559 -0.000009 -0.000000 -0.000000 -0.000001 -0.000679 9.278123 0.000000 -0.000000 -0.000000 8.207792 -6.751710 -1.599556 -0.074518 -0.000003 0.000081 -0.000002 -44.370014 0.346960 0.148822 0.000002 0.000000 -0.000001 -44.423664 -3.044403 -0.074314 0.000000 -0.000002 -0.000004 -8.728671 10.710558 0.000007 -0.000000 -0.000000 0.000000 -0.000680 9.278137 -0.000000 0.000000 -0.000001 
0.000006 104.270477 1.554256 0.000010 0.000003 -0.000113 -0.000005 10.181587 0.131522 0.000001 -0.000003 0.000084 -0.000000 9.893967 -1.470711 0.000001 0.000000 -0.000000 -0.000000 9.220802 -1.370642 0.000000 -0.000000 -0.000000 0.000001 16.740433 -2.049030 0.000000 -0.000000 -0.000000 0.000000 9.617859 1.685014 0.000000 0.000000 0.000000 0.000002 22.037384 7.501101 0.000000 -0.000000 0.000000 -4.569968 11.014880 -2.160881 0.000008 0.000001 -0.000038 -10.592760 -0.524845 -2.231735 79.289624 69.730610 -59.994585 -27.841507 -0.000002 0.000575 37.258422 99.509511 -43.431937 -28.328829 0.000036 0.000023 -0.000321 -0.000044 0.000007 -2.464932 -1.574034 2.682189 -119.200256 30.553673 -35.698629 -3.215103 -1.873003 1.924705 -133.336467 -15.078595 -50.422997 -2.654901 -1.527711 1.512978 109.238111 70.723781 -204.641989 -2.018830 -1.152001 1.108060 -0.000002 0.000003 0.000004 -9.108435 -0.517786 2.259955 -19.661733 30.416765 -39.657830 -3.700066 0.000311 0.001475 79.227449 14.814819 -24.618823 -2.850066 0.000382 -0.000230 92.053472 7.553547 -32.725762 -2.772164 0.000021 -0.000024 0.000005 0.000001 0.000003 -9.532669 0.000007 0.000331 -66.006272 61.035281 6.852251 -3.700082 0.000313 0.004007 84.637874 16.261605 -38.195627 -2.950105 0.000316 -0.001762 99.340354 17.976619 -19.078086 -2.946618 -0.000009 -0.000154 -0.000000 0.000002 0.000003 -9.103725 -0.043157 -1.864795 122.838794 133.702592 -152.509067 -3.379364 0.000277 -0.000856 64.602204 17.398778 -28.078966 -2.889783 0.000329 0.000627 85.966516 11.487930 -25.525030 -2.638797 -0.000017 0.000951 0.000002 -0.000003 0.000001 -8.076788 -0.486643 -3.806181 17.476046 31.777937 11.115638 -3.600072 0.000084 -0.003703 36.065619 19.471001 8.234258 -2.100024 0.000220 -0.005667 36.276347 5.617043 -13.347203 -2.115763 -0.000055 -0.003681 0.000000 -0.000003 -0.000002 4.570446 11.014691 -2.160851 -0.000018 0.000010 -0.000021 10.592533 -0.524546 -2.232380 69.414584 -73.405361 54.616030 27.841776 -0.000075 -0.000122 216.179053 -80.303285 222.332657 28.328833 -0.000029 0.000023 0.000020 -0.000089 -0.000000 2.466026 -1.576164 2.681899 -32.234306 -211.806543 -19.249095 3.217474 -1.871794 1.916510 126.036811 -11.944426 -123.081607 2.656017 -1.528494 1.514416 156.157140 -29.647385 9.132965 2.020883 -1.154082 1.115167 -0.000000 0.000001 0.000002 9.109416 -0.517832 2.259760 105.127355 -22.467023 29.070931 3.700080 0.000141 -0.000450 91.984862 -22.448381 23.237699 2.850054 0.000194 0.000201 87.188895 -17.852335 17.008745 2.774871 -0.000033 -0.000016 0.000001 0.000001 0.000000 9.533502 0.000203 -0.000051 104.772541 -25.611254 32.860610 3.700089 0.000171 -0.000369 96.215331 -23.580605 26.195999 2.950086 0.000135 -0.000175 89.409498 -26.190038 25.933878 2.952873 -0.000013 0.000061 -0.000001 -0.000001 0.000000 9.104607 -0.042854 -1.865188 93.713672 -23.100887 24.605360 3.150050 0.000198 -0.000067 90.081896 -14.961775 14.984808 2.950024 0.000162 -0.000060 85.266347 -15.930880 14.682304 2.644319 0.000032 0.000048 0.000000 -0.000001 -0.000000 8.077858 -0.486735 -3.806415 78.092087 -21.646218 18.134062 3.599999 0.000191 0.014543 79.733463 -8.191334 7.245933 2.100033 0.000197 0.007509 81.050740 -7.680820 6.960105 2.125491 -0.000027 0.007502 0.000006 -0.000003 0.000002 -8.207786 -6.751667 -1.599560 -0.077001 -0.000003 0.000080 -0.000002 -44.370110 0.345938 0.153719 -0.000000 -0.000000 0.000000 -44.423679 -3.043532 -0.076700 0.000000 -0.000002 -0.000006 -8.728667 10.710559 -0.000009 -0.000000 -0.000000 -0.000001 -0.000679 9.278123 0.000000 -0.000000 -0.000000 8.207792 -6.751710 -1.599556 -0.074518 -0.000003 0.000081 -0.000002 -44.370014 0.346960 0.148822 0.000002 0.000000 -0.000001 -44.423664 -3.044403 -0.074314 0.000000 -0.000002 -0.000004 -8.728671 10.710558 0.000007 -0.000000 -0.000000 0.000000 -0.000680 9.278137 -0.000000 0.000000 -0.000001 
0.000006 104.270477 1.554256 0.000010 0.000003 -0.000113 -0.000005 10.181587 0.131522 0.000001 -0.000003 0.000084 -0.000000 9.893967 -1.470711 0.000001 0.000000 -0.000000 -0.000000 9.220802 -1.370642 0.000000 -0.000000 -0.000000 0.000001 16.740433 -2.049030 0.000000 -0.000000 -0.000000 0.000000 9.617859 1.685014 0.000000 0.000000 0.000000 0.000002 22.037384 7.501101 0.000000 -0.000000 0.000000 -4.569968 11.014880 -2.160881 0.000008 0.000001 -0.000038 -10.592768 -0.524853 -2.231744 80.066223 66.713265 -57.887151 -27.841513 0.000005 0.000565 37.623506 98.823965 -43.367426 -28.328829 0.000022 0.000030 -0.000321 -0.000045 0.000007 -2.464898 -1.574043 2.682285 -141.428192 18.688863 -32.687506 -3.215143 -1.872955 1.924743 -144.991652 -1.844552 -46.971470 -2.654903 -1.527730 1.513029 154.312429 60.389930 -270.160401 -2.018838 -1.152016 1.108069 -0.000005 -0.000004 0.000004 -9.108464 -0.517846 2.260129 -52.018488 48.869737 -3.562931 -3.700112 0.000232 0.001537 80.097027 33.693607 -36.332279 -2.850121 0.000328 -0.000185 97.637281 16.658968 -33.015987 -2.772162 0.000001 -0.000005 0.000001 -0.000001 -0.000001 -9.532644 -0.000069 0.000389 -83.903581 46.996189 27.693277 -3.700127 0.000237 0.004012 82.269308 28.926565 -38.514771 -2.950102 0.000311 -0.001784 99.618207 17.865683 -19.944941 -2.946629 0.000001 -0.000164 -0.000002 0.000005 -0.000002 -9.103724 -0.043134 -1.864807 120.772607 139.725808 -156.641537 -3.379413 0.000192 -0.000852 54.077312 30.475467 -25.037073 -2.889830 0.000295 0.000670 86.961688 19.205104 -26.717263 -2.638816 -0.000015 0.000948 0.000001 0.000005 -0.000001 -8.076786 -0.486662 -3.806185 5.580344 29.128940 7.512549 -3.600060 0.000023 -0.003708 19.151234 17.584385 4.997973 -2.100059 0.000072 -0.005678 13.367260 13.714584 -7.473957 -2.115767 -0.000039 -0.003681 -0.000000 -0.000001 -0.000003 4.570446 11.014691 -2.160851 -0.000018 0.000010 -0.000021 10.592533 -0.524542 -2.232384 71.050558 -70.458729 53.513767 27.841780 -0.000023 -0.000132 219.158326 -81.213914 225.064282 28.328833 -0.000026 0.000017 0.000021 -0.000089 -0.000001 2.465964 -1.576139 2.681893 -40.069978 -211.442863 -4.340680 3.217664 -1.872079 1.916587 157.902854 30.457302 -214.742158 2.655936 -1.528817 1.514639 170.176322 24.056988 121.803324 2.020883 -1.154070 1.115149 0.000003 0.000003 0.000006 9.109437 -0.517870 2.259799 115.166921 -29.229163 44.627524 3.700060 0.000112 -0.000422 81.893005 -28.985981 25.298718 2.850065 0.000129 0.000227 71.910861 -24.537881 17.926976 2.774886 -0.000030 -0.000025 -0.000000 -0.000002 0.000001 9.533519 0.000218 -0.000021 121.468658 -25.792889 44.432095 3.700044 0.000132 -0.000389 74.877752 -14.565384 11.174481 2.950050 0.000069 -0.000184 53.284683 -10.906559 5.485592 2.952865 -0.000019 0.000057 0.000001 -0.000001 -0.000003 9.104654 -0.042843 -1.865156 122.377538 -26.632210 46.571105 3.149998 0.000187 -0.000128 76.996367 0.290642 -0.229960 2.949979 0.000106 -0.000129 53.780401 6.121579 -3.105890 2.644312 0.000050 0.000054 0.000002 0.000000 0.000002 8.077904 -0.486670 -3.806329 117.150776 -27.640932 44.851813 3.599966 0.000288 0.014553 95.670432 0.616427 -0.217654 2.099972 0.000216 0.007507 82.188144 8.622894 -7.226734 2.125505 -0.000007 0.007523 -0.000001 -0.000001 -0.000000 -8.207786 -6.751667 -1.599560 -0.077001 -0.000003 0.000080 -0.000002 -44.370110 0.345938 0.153719 -0.000000 -0.000000 0.000000 -44.423679 -3.043532 -0.076700 0.000000 -0.000002 -0.000006 -8.728667 10.710559 -0.000009 -0.000000 -0.000000 -0.000001 -0.000679 9.278123 0.000000 -0.000000 -0.000000 8.207792 -6.751710 -1.599556 -0.074518 -0.000003 0.000081 -0.000002 -44.370014 0.346960 0.148822 0.000002 0.000000 -0.000001 -44.423664 -3.044403 -0.074314 0.000000 -0.000002 -0.000004 -8.728671 10.710558 0.000007 -0.000000 -0.000000 0.000000 -0.000680 9.278137 -0.000000 0.000000 -0.000001 
